Coordinates
version=1
nRows=14
nColumns=24
inDegrees=yes

Units are S.I. units (second, meters, Newtons, ...)
Angles are in degrees.

endheader
time	pelvis_tilt	pelvis_list	pelvis_rotation	pelvis_tx	pelvis_ty	pelvis_tz	hip_flexion_r	hip_adduction_r	hip_rotation_r	knee_angle_r	ankle_angle_r	subtalar_angle_r	mtp_angle_r	hip_flexion_l	hip_adduction_l	hip_rotation_l	knee_angle_l	ankle_angle_l	subtalar_angle_l	mtp_angle_l	lumbar_extension	lumbar_bending	lumbar_rotation
      0.69133333	     -4.68731375	     -0.85119796	      2.35958259	     -0.38060553	      1.04957322	      0.31807177	     18.73994378	      2.55037117	     -2.58246149	    -28.33881307	     16.27849634	     -3.57406235	      1.56155479	     20.38778625	     -5.66883659	     -3.91696434	    -73.22321134	      9.64516831	      3.90777863	      7.85289561	     -6.06565810	      4.71315547	      0.21528689
      0.69550000	     -4.65576171	     -0.69345539	      2.30794792	     -0.37519084	      1.05120659	      0.31812550	     18.11674158	      2.41359481	     -2.50965788	    -27.79750524	     16.24033285	     -3.52108155	      1.54857471	     20.86387239	     -5.44858193	     -4.05494383	    -72.86939970	      9.86177285	      4.20779063	      7.85829793	     -6.10151866	      4.54312634	      0.32921489
      0.69966667	     -4.62485817	     -0.54118462	      2.25154145	     -0.36976010	      1.05284245	      0.31816311	     17.48620288	      2.28073585	     -2.43951042	    -27.23720049	     16.18329956	     -3.47032896	      1.53621744	     21.32498519	     -5.23507105	     -4.20191926	    -72.44613302	     10.06392954	      4.50067468	      7.86889525	     -6.13435502	      4.38023078	      0.44895261
      0.70383333	     -4.58514531	     -0.37980361	      2.18598599	     -0.36434712	      1.05445451	      0.31819478	     16.84847705	      2.13706621	     -2.36502733	    -26.67585901	     16.12412391	     -3.41880256	      1.52412411	     21.76180628	     -5.01523644	     -4.36637109	    -71.96218598	     10.25730448	      4.79454384	      7.88468984	     -6.18060914	      4.20696751	      0.58001706
      0.70800000	     -4.56074464	     -0.22658041	      2.10794384	     -0.35892028	      1.05601168	      0.31823366	     16.22784728	      2.00188205	     -2.28516664	    -26.11072294	     16.05593881	     -3.36688183	      1.51208047	     22.19773520	     -4.81112061	     -4.54715420	    -71.41630527	     10.43912803	      5.07378520	      7.90555767	     -6.21200831	      4.03976307	      0.72337548
      0.71216667	     -4.50419567	     -0.07329588	      2.02658531	     -0.35350904	      1.05760327	      0.31826257	     15.56830368	      1.86511007	     -2.20869964	    -25.52890399	     15.96831242	     -3.31798351	      1.50044935	     22.58443560	     -4.61051730	     -4.73625361	    -70.81121345	     10.60851174	      5.34335324	      7.93088489	     -6.27874985	      3.87170698	      0.86978662
      0.71633333	     -4.46680786	      0.09073031	      1.93480264	     -0.34810078	      1.05911361	      0.31829855	     14.93699283	      1.71537995	     -2.12421310	    -24.96056748	     15.89371985	     -3.26855946	      1.48967648	     22.97353470	     -4.40177635	     -4.94135349	    -70.14587431	     10.76054708	      5.57691821	      7.96103394	     -6.32664343	      3.69472535	      1.02443724
      0.72050000	     -4.43253220	      0.24671623	      1.84163561	     -0.34269234	      1.06058795	      0.31832648	     14.30864886	      1.57069046	     -2.04921732	    -24.38529303	     15.79259413	     -3.20777247	      1.48020763	     23.35261103	     -4.20584879	     -5.15355286	    -69.42747157	     10.90026312	      5.78707015	      7.99041617	     -6.36707234	      3.51930093	      1.16326142
      0.72466667	     -4.36033683	      0.38536814	      1.73555512	     -0.33730364	      1.06205240	      0.31837446	     13.63872953	      1.44892308	     -1.95959846	    -23.79984325	     15.72337910	     -3.18037358	      1.46859106	     23.67714219	     -4.04046098	     -5.37744980	    -68.66472037	     11.04084626	      5.97875269	      8.04188555	     -6.46110162	      3.35347770	      1.38946265
      0.72883333	     -4.32003359	      0.54329833	      1.62578311	     -0.33192044	      1.06344308	      0.31841278	     13.01375023	      1.29984486	     -1.87628286	    -23.23229484	     15.62139213	     -3.12553017	      1.45855484	     24.01605680	     -3.84923885	     -5.60397625	    -67.83671093	     11.14968303	      6.13063656	      8.09486534	     -6.51634225	      3.17180997	      1.55791510
      0.73300000	     -4.30824119	      0.70592413	      1.50906341	     -0.32654882	      1.06472417	      0.31843405	     12.43379184	      1.13921080	     -1.80334360	    -22.68978681	     15.50600321	     -3.05235815	      1.45183477	     24.37031026	     -3.65257569	     -5.83605829	    -66.95855555	     11.24161263	      6.26309143	      8.12927785	     -6.53569515	      3.00133450	      1.67344458
      0.73716667	     -4.29010006	      0.85842773	      1.38932686	     -0.32119372	      1.06594143	      0.31848169	     11.84907704	      0.99037626	     -1.73038371	    -22.14366214	     15.39952216	     -2.97965615	      1.44644923	     24.70730102	     -3.47656967	     -6.07614766	    -66.04251335	     11.32411407	      6.36592734	      8.15867383	     -6.56561093	      2.81518478	      1.80145190
      0.74133333	     -4.24098045	      1.00758591	      1.26493311	     -0.31585652	      1.06716111	      0.31852536	     11.23072387	      0.84660171	     -1.63578193	    -21.59456190	     15.33414939	     -2.93542903	      1.44115223	     24.99246590	     -3.30327049	     -6.30905945	    -65.07342944	     11.39072969	      6.41976124	      8.21859035	     -6.64568356	      2.63865873	      2.05911580
      0.74550000	     -4.23140049	      1.15512497	      1.13541373	     -0.31053076	      1.06823979	      0.31856566	     10.67388222	      0.69815641	     -1.56437623	    -21.07736571	     15.24378987	     -2.87813296	      1.43707462	     25.30662650	     -3.13541542	     -6.54911154	    -64.06123499	     11.44094963	      6.47347776	      8.26075645	     -6.65893632	      2.47429559	      2.20275740
